# xmcd CD database file
#
# Track frame offsets:
#	150
#	18644
#	33219
#	52873
#	70092
#	101114
#	112522
#	129008
#	153836
#	171576
#	190574
#	205910
#	234204
#	270116
#
# Disc length: 3937 seconds
#
# Revision: 0
# Processed by: cddbd v1.5.2PL0 Copyright (c) Steve Scherf et al.
# Submitted via: CDex 1.51
#
DISCID=9f0f5f0e
DTITLE=Nina Simone - My Baby Just Cares For Me - Disc 1 (including the original Little Girl Blue album)
DYEAR=2008
DGENRE=Jazz
TTITLE0=Mood Indigo
TTITLE1=Don't Smoke In Bed
TTITLE2=Little Girl Blue
TTITLE3=You'll Never Walk Alone
TTITLE4=Central Park Blues
TTITLE5=He Needs Me
TTITLE6=My Baby Just Cares For Me
TTITLE7=Good Bait
TTITLE8=Plain Gold Ring
TTITLE9=I Loves You Porgy
TTITLE10=Love Me or Leave Me
TTITLE11=Fine and Mellow
TTITLE12=Under the Lowest
TTITLE13=Summertime
EXTD=YEAR: 2008
EXTT0=
EXTT1=
EXTT2=
EXTT3=
EXTT4=
EXTT5=
EXTT6=
EXTT7=
EXTT8=
EXTT9=
EXTT10=
EXTT11=
EXTT12=
EXTT13=
PLAYORDER=
